<svg style="position: absolute; width: 0; height: 0;" width="0" height="0" version="1.1" xmlns="http://www.w3.org/2000/svg" xmlns:xlink="http://www.w3.org/1999/xlink"><defs><symbol id="attention" viewBox="0 -212 1024 1024"><path d="M974 189 l0 0 l0 0 q-1 8 -2 12 l0 0 q0 0 0 0 q0 0 0 2 q0 3 -2 6 q0 1 0 2 q-1 3 -3 7 q-66 140 -189 224 q-123 83 -266 85 l0 0 q-144 -2 -267 -86 q-123 -84 -190 -225 l0 0 q0 -2 -1 -4 q-1 -3 -2 -6 l0 0 l0 0 q-1 -4 -1 -7 q0 -1 0 -4 q-1 -3 -1 -3 q0 -3 0 -6 q0 -1 1 -5 q0 -3 0 -6 q0 0 1 -2 q0 -2 1 -6 q0 0 1 -1 q0 -3 2 -6 l0 0 q66 -141 189 -225 q123 -83 267 -85 q143 2 266 86 q123 84 190 225 l0 0 q1 2 2 4 q0 1 0 2 q1 3 2 6 q0 3 0 5 q1 0 1 3 q1 3 1 8 l0 0 ZM911 191 l0 0 l0 0 q1 -1 1 -2 l0 0 q0 -1 -1 -3 q0 0 0 -1 q0 0 0 -1 q-59 -124 -167 -197 q-107 -74 -232 -76 l0 0 q-125 2 -233 76 q-107 73 -167 197 l0 0 q0 1 0 2 q0 1 0 2 l0 0 l0 0 q0 1 0 1 q0 1 0 2 q0 1 0 1 q60 125 168 198 q107 74 232 76 l0 0 q125 -2 232 -76 q107 -73 167 -197 l0 0 q0 -1 0 -2 q0 0 0 0 l0 0 ZM512 35 l0 0 l0 0 q65 1 109 44 q43 44 45 109 q-2 66 -45 109 q-44 44 -109 45 q-66 -1 -109 -45 q-44 -43 -45 -109 q1 -65 45 -108 q43 -44 109 -45 l0 0 ZM512 281 l0 0 l0 0 q39 -1 65 -27 q26 -26 27 -66 q-1 -39 -27 -65 q-26 -26 -65 -27 q-40 1 -66 27 q-26 26 -27 65 q1 40 27 66 q26 26 66 27 l0 0 Z"></path></symbol><symbol id="my" viewBox="0 -212 1024 1024"><path d="M498 -150 l0 0 l0 0 q190 5 317 131 q126 127 131 317 q-5 190 -131 317 q-127 126 -317 131 q-190 -5 -317 -131 q-126 -127 -131 -317 q5 -190 131 -317 q127 -126 317 -131 l0 0 ZM275 610 l0 0 l0 0 q48 34 104 53 q56 19 119 19 q60 0 114 -17 q54 -17 100 -48 l0 0 q-3 -1 -5 -1 q-37 -15 -78 -28 q-41 -13 -70 -17 q-13 -2 -20 -11 q-8 -8 -9 -21 l0 -55 l0 0 q0 -7 4 -14 q3 -6 8 -11 q39 -32 64 -96 q25 -64 26 -133 q0 -69 -29 -103 q-29 -33 -89 -33 q-125 0 -125 136 q-1 61 16 123 q17 63 56 100 q5 4 8 10 q3 7 3 14 l0 59 l0 0 q0 13 -8 22 q-9 9 -21 10 q-26 2 -68 13 q-42 11 -90 28 q-5 1 -10 1 l0 0 ZM751 587 l0 0 l0 0 q61 -54 95 -128 q35 -74 36 -161 l0 0 q-4 -163 -112 -272 q-109 -108 -272 -112 q-163 4 -271 112 q-109 109 -113 272 q1 86 35 160 q34 73 94 126 l0 0 q-2 -11 4 -21 q5 -10 16 -14 q34 -12 72 -23 q39 -12 73 -18 l0 -17 l0 0 q-56 -63 -70 -144 q-15 -80 -13 -117 q1 -95 50 -147 q50 -52 139 -53 q87 0 134 52 q47 52 48 148 q0 69 -26 144 q-25 75 -76 125 l0 14 l0 0 q41 9 80 23 q39 13 57 20 q9 4 14 12 q6 9 6 19 l0 0 Z"></path></symbol><symbol id="home" viewBox="0 -212 1024 1024"><path d="M961 177 l0 0 l0 0 q10 9 11 21 q2 12 -6 22 l0 0 q-5 6 -11 9 q-7 3 -14 3 q-10 0 -19 -7 l-11 -8 l0 371 l0 0 q-1 41 -22 66 q-21 25 -58 26 l-614 0 l0 0 q-39 -1 -71 -27 q-32 -25 -34 -65 l0 -373 l-12 10 l0 0 q-10 8 -22 7 q-12 -2 -21 -12 q-7 -10 -6 -22 q1 -12 11 -21 l390 -308 l0 0 q26 -19 60 -19 q33 0 59 19 l390 308 l0 0 ZM481 618 l0 0 l61 0 l0 -170 l0 0 q0 -6 -9 -10 q-9 -3 -21 -3 q-12 0 -22 3 q-9 4 -9 10 l0 170 l0 0 ZM850 588 l0 0 l0 -420 l-317 -250 l0 0 q-10 -7 -22 -7 q-13 0 -22 7 l-315 249 l0 421 l0 0 q0 11 14 20 q13 10 29 10 l203 0 l0 0 q0 0 -1 -1 l0 -169 l0 0 q0 -28 23 -51 q22 -22 70 -23 q47 1 69 23 q23 23 23 51 l0 169 l0 0 q0 1 0 1 l227 0 l0 0 q19 0 19 -30 l0 0 Z"></path></symbol><symbol id="right" viewBox="0 -212 1024 1024"><path d="M493 255.07 l0 0 l0 0 q-2 5 -6 10 l0 0 q-1 0 -2 1 q0 1 -1 2 l-350 338 l0 0 q-7 6 -16 10 q-8 3 -17 3 q-10 0 -19 -3 q-9 -4 -16 -11 q-14 -16 -13 -35 q0 -19 14 -33 l316 -305 l-317 -299 l0 0 q-15 -15 -15 -34 q-1 -19 13 -34 q14 -15 34 -15 q19 -1 34 13 l353 334 l0 0 q12 11 14 26 q2 15 -4 29 q-1 2 -2 3 l0 0 Z"></path></symbol><symbol id="back" viewBox="0 -212 1024 1024"><path d="M450 650 l0 0 l0 0 q9 0 18 -4 q9 -3 16 -10 l0 0 q14 -15 14 -34 q0 -19 -14 -34 l-318 -318 l318 -318 l0 0 q14 -15 14 -34 q0 -19 -14 -34 q-15 -14 -34 -14 q-19 0 -34 14 l-352 352 l0 0 q-14 15 -14 34 q0 19 14 34 l352 352 l0 0 q7 7 16 10 q9 4 18 4 l0 0 Z"></path></symbol><symbol id="search" viewBox="0 -212 1024 1024"><path d="M939 694 l0 0 l0 0 q9 10 8 23 q0 13 -10 22 l0 0 q-10 9 -22 9 q-6 0 -12 -2 q-6 -3 -11 -8 l-166 -177 l0 0 q-1 -2 -2 -4 q-2 -1 -3 -2 q-10 -10 -10 -23 q0 -12 9 -22 q47 -50 72 -113 q26 -62 26 -131 q-4 -150 -103 -249 q-100 -99 -249 -103 q-150 4 -249 103 q-99 99 -103 249 q4 149 103 249 q99 99 249 103 q76 0 145 -32 q13 -5 25 -1 q12 5 18 17 q5 13 1 25 q-5 12 -17 18 q-82 37 -172 37 l0 0 q-177 -5 -294 -122 q-118 -118 -122 -294 q4 -177 122 -294 q117 -118 294 -122 q176 4 294 122 q117 117 122 294 q0 74 -25 141 q-25 68 -71 124 l153 163 l0 0 Z"></path></symbol><symbol id="cart" viewBox="0 -212 1024 1024"><path d="M339 618 l0 0 l0 0 l0 0 q27 1 45 19 q18 18 19 45 q-1 27 -19 45 q-18 18 -45 19 q-28 -1 -46 -19 q-18 -18 -18 -45 q0 -27 18 -45 q18 -18 46 -19 l0 0 ZM787 618 l0 0 l0 0 l0 0 q27 1 45 19 q18 18 19 45 q-1 27 -19 45 q-18 18 -45 19 q-28 -1 -46 -19 q-18 -18 -18 -45 q0 -27 18 -45 q18 -18 46 -19 l0 0 ZM850 586 l0 0 l0 0 q14 0 23 -9 q9 -9 9 -23 q0 -14 -9 -23 q-9 -9 -23 -9 l-520 0 l0 0 q-10 0 -19 -8 q-8 -8 -10 -19 l-54 -384 l-31 -178 l0 0 q-5 -36 -31 -59 q-26 -23 -62 -24 l-41 0 l0 0 q-14 0 -23 9 q-9 9 -9 23 q0 14 9 23 q9 9 23 9 l41 0 l0 0 q11 0 20 8 q8 8 10 20 l31 179 l54 382 l0 0 q5 36 31 59 q26 23 61 24 l520 0 l0 0 ZM370 458 l0 0 l0 0 q1 0 3 0 l431 -32 l0 0 q36 -1 62 -24 q25 -23 30 -57 l51 -289 l0 0 q3 -23 -4 -44 q-6 -21 -20 -37 q-12 -14 -28 -22 q-16 -7 -35 -7 l-554 0 l0 0 q-14 0 -23 9 q-9 9 -9 23 q0 14 9 23 q9 9 23 9 l554 0 l0 0 q9 0 15 7 l0 0 q5 6 7 14 q2 8 2 16 l-51 288 l0 0 q-1 11 -10 19 q-9 8 -21 8 l-434 32 l0 0 q-14 1 -22 11 q-8 10 -8 23 q2 13 11 21 q8 9 21 9 l0 0 Z"></path></symbol><symbol id="add" viewBox="0 -212 1024 1024"><path d="M785 202 l0 0 l0 0 q14 0 23 9 q9 9 9 23 l0 0 q0 13 -9 22 q-9 9 -23 10 q0 0 0 0 l-317 -2 l0 319 l0 0 q0 14 -9 23 q-9 9 -23 9 q-14 0 -23 -9 q-9 -9 -9 -23 l0 -319 l-323 -1 l0 0 q-13 0 -22 -9 q-9 -9 -9 -23 l0 0 q0 -14 9 -23 q9 -9 23 -9 q0 0 0 0 l322 1 l0 -318 l0 0 q0 -14 9 -23 q9 -9 23 -9 q14 0 23 9 q9 9 9 23 l0 318 l317 2 l0 0 Z"></path></symbol><symbol id="close" viewBox="0 -212 1024 1024"><path d="M415 168 l0 0 l266 266 l0 0 q9 10 9 23 q0 13 -9 23 q-10 9 -23 9 q-13 0 -23 -9 l-265 -267 l-265 264 l0 0 q-10 9 -23 9 q-13 0 -23 -9 q-9 -10 -9 -23 q0 -12 10 -22 l265 -264 l-263 -264 l0 0 q-10 -10 -10 -22 q0 -13 10 -23 q10 -9 22 -9 q13 0 23 9 l263 264 l265 -264 l0 0 q10 -9 23 -9 q13 0 23 9 q9 10 9 23 q0 13 -9 22 l-266 264 l0 0 Z"></path></symbol><symbol id="lock" viewBox="0 -212 1024 1024"><path d="M466 554 l0 0 l0 0 q14 0 23 -9 q9 -9 9 -23 l0 -96 l0 0 q0 -14 -9 -23 q-9 -9 -23 -9 q-14 0 -23 9 q-9 9 -9 23 l0 96 l0 0 q0 14 9 23 q9 9 23 9 l0 0 ZM786 746 l0 0 l0 0 q41 -1 68 -28 q27 -27 28 -68 l0 -352 l0 0 q-1 -41 -28 -68 q-27 -27 -68 -28 l-640 0 l0 0 q-41 1 -68 28 q-27 27 -28 68 l0 352 l0 0 q1 41 28 68 q27 27 68 28 l640 0 l0 0 ZM146 266 l0 0 l640 0 l0 0 q14 0 23 9 q9 9 9 23 l0 352 l0 0 q0 14 -9 23 q-9 9 -23 9 l-640 0 l0 0 q-14 0 -23 -9 q-9 -9 -9 -23 l0 -352 l0 0 q0 -14 9 -23 q9 -9 23 -9 l0 0 ZM690 266 l0 0 l0 0 q14 0 23 -9 q9 -9 9 -23 l0 -130 l0 0 q-5 -114 -83 -183 q-79 -69 -175 -71 q-98 1 -174 67 q-76 67 -80 187 l0 130 l0 0 q0 14 9 23 q9 9 23 9 q14 0 23 -9 q9 -9 9 -23 l0 -130 l0 0 q3 -90 60 -140 q57 -49 130 -50 q72 2 131 54 q59 53 63 136 l0 130 l0 0 q0 14 9 23 q9 9 23 9 l0 0 Z"></path></symbol><symbol id="write" viewBox="0 -212 1024 1024"><path d="M873 101 l0 0 l0 0 q9 10 9 22 q1 13 -8 23 l-476 494 l0 0 q-7 7 -16 9 l-293 65 l0 0 q-3 1 -7 1 q-12 0 -22 -9 l0 0 q-6 -6 -8 -13 q-2 -8 -1 -16 l62 -331 l0 0 q2 -9 9 -16 l459 -471 l0 0 q9 -9 22 -9 l0 0 q14 0 23 9 l247 242 l0 0 ZM387 559 l0 0 l418 -435 l-201 -197 l-430 441 l-51 273 l209 -47 l-113 -111 l0 0 q-9 -10 -9 -23 q0 -12 9 -22 q10 -10 23 -10 q12 0 22 10 l123 121 l0 0 Z"></path></symbol><symbol id="top" viewBox="0 -212 1024 1024"><path d="M748 277 l0 0 l0 0 q9 10 9 23 q0 13 -10 23 l0 0 q-9 9 -22 9 q-6 0 -12 -3 q-6 -2 -11 -7 l-236 -237 l0 565 l0 0 q0 14 -9 23 q-9 9 -23 9 q-14 0 -23 -9 q-9 -9 -9 -23 l0 -564 l-206 206 l0 0 q-10 10 -23 10 q-13 0 -23 -10 q-9 -10 -9 -22 q0 -13 10 -23 l259 -259 l0 0 q5 -5 11 -7 q6 -3 13 -3 l0 0 q2 0 3 1 q13 -1 23 9 l288 289 l0 0 ZM786 -86 l0 0 l0 0 q14 0 23 -9 q9 -9 9 -23 q0 -14 -9 -23 q-9 -9 -23 -9 l-704 0 l0 0 q-14 0 -23 9 q-9 9 -9 23 q0 14 9 23 q9 9 23 9 l704 0 l0 0 Z"></path></symbol><symbol id="down" viewBox="0 -212 1024 1024"><path d="M715 240 l0 0 l0 0 q9 10 9 22 q0 13 -9 23 l-255 254 l0 0 q-4 7 -11 11 q-6 4 -15 4 l0 0 q-7 0 -13 -3 l0 0 q-6 -2 -11 -7 l-287 -289 l0 0 q-10 -10 -10 -23 q0 -13 10 -23 q10 -9 22 -9 q13 0 23 10 l234 235 l0 -563 l0 0 q0 -14 9 -23 q9 -9 23 -9 q14 0 23 9 q9 9 9 23 l0 561 l204 -203 l0 0 q9 -10 22 -10 q13 0 23 10 l0 0 ZM786 682 l0 0 l0 0 q14 0 23 -9 q9 -9 9 -23 q0 -14 -9 -23 q-9 -9 -23 -9 l-704 0 l0 0 q-14 0 -23 9 q-9 9 -9 23 q0 14 9 23 q9 9 23 9 l704 0 l0 0 Z"></path></symbol><symbol id="repair" viewBox="0 -212 1024 1024"><path d="M803 722.67 l0 0 l0 0 q12 0 22 -9 l79 -79 l0 0 q9 -9 9 -22 q0 -13 -9 -23 l-214 -213 l0 0 q-9 -10 -22 -10 q-13 0 -23 10 q-9 9 -9 22 q0 13 9 23 l191 191 l-33 33 l-192 -191 l0 0 q-10 -10 -22 -10 q-13 0 -23 10 q-9 10 -9 22 q0 13 9 23 l214 214 l0 0 q10 9 23 9 l0 0 ZM577 -86.33 l0 0 l0 0 q0 1 -1 2 l0 0 q-2 4 -5 8 q0 0 -1 1 q-3 4 -8 6 q-1 1 -2 1 q-5 2 -10 3 q-1 0 -2 0 q-29 2 -57 13 q-27 11 -49 30 q-7 6 -13 12 q-24 23 -40 52 q-3 4 -5 8 q0 0 0 1 q-5 9 -1 19 l68 67 l0 0 q9 10 9 22 q0 13 -9 23 l0 0 q-10 9 -23 9 q-13 0 -23 -9 l-70 -70 l0 0 q-1 -2 -2 -3 q-4 -4 -6 -8 q-9 -19 -10 -39 q0 -21 10 -39 l-1 -1 l0 0 q4 -6 7 -12 q21 -36 50 -65 q0 -1 1 -2 q12 -12 26 -22 q3 -2 6 -5 q-40 4 -77 22 q-37 17 -68 47 q-1 1 -2 2 q-1 1 -2 3 l-139 138 l53 53 l56 -56 l0 0 q9 -9 22 -9 q13 0 23 9 l91 91 l0 0 q9 10 9 23 q0 13 -9 22 l0 0 q-10 10 -23 10 q-13 0 -23 -10 l-68 -68 l-56 56 l0 0 q-9 9 -22 10 q-14 -1 -23 -10 l-98 -98 l0 0 q-10 -10 -10 -23 q0 -13 10 -22 l162 -162 l0 0 q1 -1 2 -2 q1 -1 2 -2 l0 0 q67 -66 156 -84 q88 -17 175 17 q0 0 0 0 q1 1 2 1 q3 2 6 4 q2 1 3 2 q4 3 6 8 q1 1 1 2 q3 5 4 11 q0 0 0 0 q0 0 0 0 q0 7 -2 13 q0 0 0 0 l0 0 ZM276 745.67 l0 0 l0 0 q38 0 73 -14 q34 -15 62 -42 l0 0 q39 -40 51 -92 q12 -52 -5 -104 l237 -238 l0 0 q30 10 61 10 q39 0 73 -14 q35 -14 62 -42 q43 -44 54 -102 q10 -59 -16 -116 q-3 -7 -9 -12 q-7 -4 -14 -5 q-8 -2 -15 0 q-8 3 -14 8 l-89 90 l-33 -33 l89 -89 l0 0 q5 -6 8 -13 q2 -8 1 -15 q-2 -8 -7 -14 q-4 -7 -12 -10 q-18 -8 -39 -13 q-20 -4 -40 -4 q-39 0 -74 15 q-34 14 -62 41 q-38 39 -50 90 q-13 52 3 104 l-238 239 l0 0 q-52 -16 -104 -4 q-52 13 -90 51 q-43 43 -53 101 q-11 58 14 114 q3 7 9 12 q6 5 14 6 q8 2 15 -1 q8 -2 13 -8 l88 -87 l33 33 l-88 88 l0 0 q-6 6 -8 13 q-2 7 -1 15 q1 8 6 14 q5 6 12 10 q19 9 40 13 q21 5 43 5 l0 0 ZM269 681.67 l0 0 l71 -71 l0 0 q9 -10 9 -23 q0 -13 -9 -23 l-78 -78 l0 0 q-10 -9 -23 -9 q-13 0 -23 9 l-70 70 l0 0 q0 -26 10 -50 q9 -24 28 -44 q29 -28 68 -35 q39 -7 75 9 q10 4 19 3 q10 -2 17 -9 l268 -268 l0 0 q7 -8 9 -17 q2 -10 -2 -19 q-17 -38 -10 -76 q7 -38 36 -68 q18 -18 43 -28 q24 -9 50 -9 l-71 71 l0 0 q-9 10 -9 23 q0 13 9 22 l78 79 l0 0 q10 9 23 9 l0 0 l0 0 q13 0 23 -9 l72 -73 l0 0 q2 27 -8 52 q-9 25 -29 45 q-29 28 -68 35 q-40 7 -77 -10 q-10 -4 -19 -3 q-10 2 -17 9 l-267 267 l0 0 q-7 8 -9 17 q-2 10 2 19 q18 38 11 77 q-7 39 -35 69 q-20 19 -45 29 q-25 9 -52 8 l0 0 Z"></path></symbol><symbol id="choicenessfill" viewBox="0 -212 1024 1024"><path d="M944 115 l0 0 l0 0 q4 8 3 16 q-2 9 -7 17 l-414 521 l0 0 q-5 6 -12 9 q-6 4 -13 4 l0 0 l0 0 q-8 0 -14 -4 q-7 -3 -12 -9 l-417 -525 l0 0 q-7 -8 -7 -18 q-1 -9 4 -17 l133 -243 l0 0 q4 -8 12 -12 q7 -4 16 -4 l594 0 l0 0 q10 0 18 5 q8 5 12 14 l104 246 l0 0 ZM784 170 l0 0 l0 0 q14 0 23 -9 q9 -9 9 -23 q0 -14 -9 -23 q-9 -9 -23 -9 l-200 0 l157 -136 l0 0 q10 -9 11 -22 q1 -12 -8 -23 q-9 -10 -22 -11 q-12 -1 -23 8 l-201 174 l-205 -174 l0 0 q-11 -9 -23 -8 q-13 1 -22 11 l0 0 q-9 11 -8 23 q1 13 11 22 l160 136 l-203 0 l0 0 q-14 0 -23 9 q-9 9 -9 23 q0 14 9 23 q9 9 23 9 l256 0 l0 416 l0 0 q0 14 9 23 q9 9 23 9 q14 0 23 -9 q9 -9 9 -23 l0 -416 l256 0 l0 0 Z"></path></symbol><symbol id="crownfill" viewBox="0 -212 1024 1024"><path d="M974 65 l0 0 l0 0 q-1 31 -16 55 q-15 25 -40 39 l-19 430 l0 0 q0 8 -4 15 q-4 6 -10 10 q-2 6 -90 36 q-89 30 -282 34 q-192 -4 -281 -34 q-88 -29 -90 -36 q-7 -4 -10 -10 q-4 -7 -4 -14 l-22 -431 l0 0 q-25 -14 -40 -39 q-16 -24 -16 -55 l0 0 q1 -46 32 -77 q30 -30 76 -31 q45 1 76 32 q30 30 31 76 q0 39 -23 67 q-23 29 -60 38 q30 58 68 106 q39 47 72 50 q18 2 56 -55 q37 -56 86 -187 q-33 -15 -53 -44 q-19 -30 -20 -67 q2 -52 36 -87 q35 -34 86 -36 q52 2 87 36 q34 35 35 87 q0 37 -19 66 q-20 30 -53 45 q46 123 86 186 q40 64 63 64 q24 -2 60 -50 q36 -48 69 -114 q-36 -9 -59 -38 q-23 -28 -24 -67 l0 0 q1 -46 32 -76 q30 -31 76 -32 q46 1 76 32 q31 30 32 76 l0 0 Z"></path></symbol><symbol id="likefill" viewBox="0 -212 1024 1024"><path d="M727 -150 l0 0 l0 0 q105 2 175 72 q69 70 72 174 q-1 62 -22 101 q-21 39 -50 72 l-2 3 l-305 308 l0 0 q-18 18 -38 29 q-21 11 -45 11 l0 0 q-24 0 -45 -11 q-21 -11 -39 -29 l-305 -308 l0 0 q-26 -28 -49 -72 q-23 -44 -24 -104 q2 -104 72 -174 q70 -70 174 -72 l0 0 q48 0 92 17 q44 18 79 51 l45 46 l0 0 q14 -15 28 -29 q14 -13 18 -17 q34 -33 78 -51 q43 -17 91 -17 l0 0 Z"></path></symbol><symbol id="appreciatefill" viewBox="0 -212 1024 1024"><path d="M850 170.14 l0 0 l0 0 q35 1 64 28 q30 28 32 69 l0 0 q-2 48 -27 214 q-25 165 -45 213 q-19 28 -55 40 q-36 12 -65 12 l-216 0 l0 0 q-88 -4 -154 -32 q-66 -28 -87 -32 l-87 0 l0 0 q-14 0 -23 -9 q-9 -9 -9 -23 l0 -448 l0 0 q0 -14 9 -23 q9 -9 23 -9 l90 0 l0 0 q12 0 48 -21 q35 -21 61 -60 l0 0 q8 -15 15 -39 q7 -23 13 -50 q9 -40 20 -74 q12 -34 31 -54 l0 0 q17 -17 44 -21 q27 -4 56 6 l0 0 q39 13 63 45 q24 33 30 78 q6 58 -1 111 q-8 53 -19 79 l189 0 l0 0 ZM82 170.14 l0 0 l0 0 q14 0 23 9 q9 10 9 23 l0 448 l0 0 q0 14 -9 23 q-9 9 -23 9 q-14 0 -23 -9 q-9 -9 -9 -23 l0 -448 l0 0 q0 -13 9 -23 q9 -9 23 -9 l0 0 Z"></path></symbol><symbol id="safe" viewBox="0 -212 1024 1024"><path d="M663 143 l0 0 l0 0 q10 -9 23 -9 q13 -1 23 9 l0 0 q9 10 9 22 q0 13 -9 23 l-256 259 l0 0 q-1 0 -1 0 q0 0 0 1 q-3 2 -7 4 q-1 1 -3 2 q-6 3 -12 3 q-6 0 -12 -3 q-2 -1 -4 -2 q-3 -2 -7 -5 q0 0 0 0 q0 0 0 0 l-126 -130 l0 0 q-9 -10 -9 -22 q0 -13 10 -23 q10 -9 23 -9 q12 0 22 10 l103 106 l233 -236 l0 0 ZM468 -150 l0 0 l0 0 q108 16 254 64 q146 49 160 133 l0 0 q-17 292 -172 493 q-155 200 -247 209 q-92 -8 -245 -206 q-152 -199 -168 -496 q16 -89 168 -137 q151 -48 240 -60 q5 0 10 0 l0 0 ZM463 685 l0 0 l0 0 q61 -11 200 -188 q138 -177 155 -450 l0 0 q-5 -29 -108 -68 q-103 -38 -247 -65 q-142 26 -243 64 q-102 39 -106 69 l0 0 q16 273 152 450 q137 177 197 188 l0 0 Z"></path></symbol><symbol id="roundaddfill" viewBox="0 -212 1024 1024"><path d="M815 -19 l0 0 l0 0 q63 63 97 144 q34 81 34 171 l0 0 q0 90 -34 171 q-34 81 -97 144 l0 0 q-64 64 -146 97 q-81 34 -171 34 q-90 0 -172 -34 q-81 -33 -145 -97 q-63 -63 -97 -144 q-34 -81 -34 -171 l0 0 q0 -90 34 -171 q34 -81 97 -144 l0 0 q64 -64 145 -97 q82 -34 172 -34 q90 0 171 34 q82 33 146 97 l0 0 ZM722 328 l0 0 l0 0 q14 0 23 -9 q9 -9 9 -23 q0 -14 -9 -23 q-9 -9 -23 -9 l-192 0 l0 -192 l0 0 q0 -14 -9 -23 q-9 -9 -23 -9 q-14 0 -23 9 q-9 9 -9 23 l0 192 l-192 0 l0 0 q-14 0 -23 9 q-9 9 -9 23 q0 14 9 23 q9 9 23 9 l192 0 l0 192 l0 0 q0 14 9 23 q9 9 23 9 q14 0 23 -9 q9 -9 9 -23 l0 -192 l192 0 l0 0 Z"></path></symbol><symbol id="cut" viewBox="0 -212 1024 1024"><path d="M771 394 l0 0 l0 0 q75 2 125 52 q49 50 51 124 l0 0 q-2 75 -51 124 q-50 50 -125 52 q-59 -1 -104 -34 q-44 -33 -63 -86 l-101 -205 l-116 221 l0 0 q0 0 0 0 q-22 47 -64 75 q-43 29 -97 29 q-75 -2 -124 -51 q-50 -50 -52 -125 q2 -74 52 -124 q49 -50 124 -52 q56 1 99 31 q42 29 63 77 l81 -151 l-225 -455 l0 0 q-5 -12 -1 -24 q4 -12 16 -19 q12 -5 24 -1 q12 4 19 16 l203 413 l220 -414 l0 0 q6 -12 19 -16 q12 -3 24 3 q12 6 16 19 q3 12 -3 24 l-241 455 l72 144 l0 0 q21 -45 63 -73 q42 -28 96 -29 l0 0 ZM226 682 l0 0 l0 0 q48 -1 79 -32 q32 -32 33 -80 l0 0 q-1 -47 -33 -79 q-31 -31 -79 -33 q-47 2 -79 33 q-32 32 -33 79 q1 48 33 79 q32 32 79 33 l0 0 ZM771 682 l0 0 l0 0 q48 -1 79 -32 q32 -32 33 -80 l0 0 q-1 -47 -33 -79 q-31 -31 -79 -33 q-47 2 -79 33 q-32 32 -33 79 q0 18 6 34 l15 31 l0 0 q16 22 39 34 q24 13 52 13 l0 0 Z"></path></symbol><symbol id="perm_scan_wifi" viewBox="0 -212 1024 1024"><path d="M572 87 l94 0 l0 -95 l-94 0 l0 95 l0 0 ZM666 465 l0 -284 l-94 0 l0 284 l94 0 l0 0 ZM619 -150 q179 2 319 58 q139 57 250 144 l-569 698 l-569 -700 q111 -87 251 -143 q139 -55 318 -57 l0 0 Z"></path></symbol><symbol id="security" viewBox="0 -212 1024 1024"><path d="M50 15 l367 -165 l368 165 l0 245 q-3 174 -105 310 q-102 137 -263 180 q-161 -43 -263 -180 q-102 -136 -104 -310 l0 -245 l0 0 ZM417 300 l0 366 q115 -38 192 -138 q76 -99 94 -228 l-286 0 l0 0 ZM417 300 l0 -360 l-285 127 l0 233 l285 0 l0 0 Z"></path></symbol><symbol id="bury-dig-shovel-tools" viewBox="0 -212 1024 1024"><path d="M770 169.46 l45 -44 l-78 -78 q-23 55 -15 74 l48 48 ZM816 215.46 q20 8 74 -16 l-75 -74 l-45 44 l46 46 ZM722 121.46 q-8 -19 15 -74 l78 78 l31 -32 l-82 -82 q-28 -23 -57 1 l-2 2 l-2 4 q-13 25 -23 67 q-10 42 11 67 l48 48 l31 -31 l-48 -48 ZM921 231.46 l3 -3 q24 -28 1 -56 l-79 -79 l-31 32 l75 74 q-54 24 -74 16 l-46 -46 l-31 31 l44 44 q26 21 68 11 q41 -10 67 -22 l3 -2 ZM257 435.46 q-8 -7 -16 0 l-194 194 q-102 104 17 243 q1 1 2 1 l315 -314 l-124 -124 ZM381 559.46 l-315 314 q138 117 241 16 l194 -194 q7 -8 0 -16 l-120 -120 ZM769 167.46 l-477 477 l-20 -20 l477 -477 l20 20 ZM314 666.46 l-22 -22 l477 -477 l22 21 l-477 478 ZM412 526.46 l-141 140 l-33 -33 l141 -141 l33 34 ZM303 698.46 l-32 -31 l141 -141 l32 31 l-141 141 Z"></path></symbol><symbol id="construction-gardening-industry-move-shovel-tools-work" viewBox="0 -212 1024 1024"><path d="M231 426 l0 -468 q67 -21 72 -93 q-2 -13 -15 -15 l-139 0 q-14 2 -16 15 q4 68 68 93 l0 468 l-136 0 q-14 1 -15 15 l0 143 q2 71 49 118 q46 46 117 48 q70 -2 117 -48 q47 -47 48 -118 l0 -143 q-1 -14 -14 -15 l-136 0 ZM270 -119 q-12 43 -52 49 q-40 -6 -52 -49 l104 0 ZM352 585 q-2 57 -40 95 q-39 39 -96 40 q-58 -1 -96 -40 q-38 -38 -40 -95 l0 -129 l272 0 l0 129 Z"></path></symbol><symbol id="ace-cards-casino-gamble-games-playing-spade-suit" viewBox="0 -212 1024 1024"><path d="M111 -150 q-56 6 -61 62 l0 777 q5 56 61 61 l512 0 q56 -5 61 -61 l0 -777 q-5 -56 -61 -62 l-512 0 ZM496 241 q-19 -23 -70 -75 q-51 -52 -59 -59 q-7 7 -58 59 q-51 52 -70 75 q-20 21 -38 65 q-18 44 32 89 q4 6 47 14 q43 9 78 -51 q-6 67 -33 101 q-27 34 -30 35 l144 0 q-4 -1 -31 -35 q-27 -35 -33 -101 q36 60 79 51 q43 -9 47 -14 q50 -45 31 -89 q-18 -45 -36 -65 ZM172 -37 q-4 -3 -8 -14 l-33 -75 l-1 0 l-34 74 q-4 10 -7 14 q-3 3 -8 3 l0 3 l30 0 l0 -3 q-7 0 -9 -1 q-3 -2 -3 -6 q0 -3 2 -7 l4 -9 l32 0 l5 11 q2 5 2 5 l0 3 q0 2 -1 3 q-2 1 -8 1 l-2 0 l0 3 l45 0 l0 -3 q-4 0 -6 -2 ZM121 -94 l14 31 l-28 0 l14 -31 ZM160 20 q-16 -17 -27 -28 q-11 10 -28 28 q-14 11 0 32 q6 10 26 -8 q-8 28 -13 29 l29 0 q-5 -1 -13 -29 q20 18 26 8 q14 -21 0 -32 ZM622 627 q7 0 9 1 q3 2 3 6 q0 3 -2 7 l-4 9 l-32 0 l-5 -11 q-2 -5 -2 -5 q-1 -2 -1 -3 q0 -2 2 -3 q2 -1 7 -1 l2 0 l0 -3 l-44 0 l0 3 q4 0 6 2 q4 3 8 13 l33 76 l1 0 l33 -74 q5 -10 8 -13 q3 -4 8 -4 l0 -3 l-30 0 l0 3 ZM598 655 l28 0 l-14 32 l-14 -32 ZM631 539 q-6 -10 -26 8 q7 -28 13 -29 l-30 0 q6 1 13 29 q-20 -18 -26 -8 q-14 21 1 32 q16 18 27 28 q11 -10 27 -28 q15 -11 1 -32 Z"></path></symbol><symbol id="shumiao" viewBox="0 -212 1024 1024"><path d="M737 -80.83 l0 0 q-34 3 -69 17 q-35 14 -67 34 q-33 20 -59 46 q-27 27 -44 55 q-15 -30 -38 -61 q-23 -31 -50 -58 q-27 -27 -56 -48 q-30 -21 -55 -33 q-26 -12 -53 -17 q-27 -5 -53 -4 q-26 1 -48 9 q-23 9 -40 24 q-18 18 -32 40 q-14 23 -18 49 q-5 26 2 52 q7 27 29 54 q33 40 75 75 q42 36 87 60 q45 24 90 34 q45 11 85 2 q-14 58 -24 130 q-10 73 -10 153 q0 63 -1 106 q-1 43 -2 69 q-2 32 -3 51 l149 0 q-3 -31 -5 -65 q-2 -30 -3 -66 q-2 -35 -2 -71 q0 -77 9 -150 q9 -73 23 -135 q26 6 60 2 q34 -4 74 -16 q39 -12 82 -30 q43 -17 88 -40 q34 -16 52 -45 q17 -28 21 -59 q4 -31 -7 -63 q-12 -32 -37 -56 q-25 -24 -62 -37 q-38 -13 -88 -8 l0 0 Z"></path></symbol><symbol id="zhifubao" viewBox="0 -212 1024 1024"><path d="M50 29 l0 0 q0 47 1 88 q1 41 3 79 l344 0 l0 -343 q-19 8 -36 20 q-17 13 -35 29 q-18 16 -36 33 q-19 17 -41 32 q-32 22 -67 29 q-35 8 -64 11 q-30 4 -49 7 q-20 3 -20 15 l0 0 ZM361 753 l0 0 q8 6 18 9 q9 4 19 7 l0 -513 l-340 0 q5 64 16 114 q10 50 28 92 q17 43 41 79 q23 37 55 71 q31 34 72 68 q40 34 91 73 l0 0 ZM456 256 l0 0 l0 518 q25 -3 45 -14 q51 -46 92 -83 q40 -37 71 -72 q31 -34 54 -69 q22 -35 38 -77 q15 -41 25 -90 q9 -49 14 -113 l-339 0 l0 0 ZM619 -20 l0 0 q-23 -16 -42 -37 q-19 -20 -38 -39 q-19 -19 -39 -34 q-21 -15 -44 -20 l0 346 l342 0 q3 -74 3 -170 q0 -10 -19 -11 q-19 -1 -46 -3 q-28 -2 -59 -8 q-32 -5 -58 -24 l0 0 Z"></path></symbol><symbol id="xiugaichujia" viewBox="0 -212 1024 1024"><path d="M50 726 l0 0 l0 48 l778 0 l0 -48 l-778 0 l0 0 ZM347 627 l0 0 l-1 2 l-296 0 l0 -295 l0 -1 l0 0 q0 0 0 0 l6 -6 l1 -1 l0 0 q0 0 0 0 l475 -476 l296 296 l-32 32 l-33 -33 l0 0 l-230 -230 l-418 419 l-4 4 l0 0 q82 27 142 87 q60 60 87 142 l5 -3 l329 -329 l33 33 l-354 353 l0 0 q0 0 0 0 q-4 5 -6 6 l0 0 ZM99 580 l0 0 l194 0 l0 0 q-23 -70 -74 -120 q-51 -51 -120 -75 l0 195 l0 0 Z"></path></symbol><symbol id="xin" viewBox="0 -212 1024 1024"><path d="M846 -150 l0 0 l-664 0 q-27 0 -51 10 q-25 11 -42 28 q-18 18 -28 42 q-11 25 -11 52 l0 598 q0 28 11 52 q10 24 28 41 q17 18 42 28 q24 11 51 11 l664 0 q28 0 51 -11 q23 -10 40 -28 q17 -17 27 -41 q10 -24 10 -52 l0 -598 q0 -27 -10 -52 q-10 -24 -27 -42 q-17 -17 -40 -28 q-23 -10 -51 -10 l0 0 ZM235 35 l0 0 l0 -61 l123 0 l0 -63 l62 0 l0 63 l122 0 l0 61 q-74 1 -136 1 l-53 0 l-50 0 q-24 0 -42 -1 q-18 0 -26 0 l0 0 ZM352 136 l-60 22 l-32 -74 l56 -21 q3 8 9 20 q6 13 12 25 q7 13 15 28 l0 0 ZM234 518 l-62 -24 l95 -140 l64 26 l-97 138 l0 0 ZM420 342 l0 0 l0 186 q0 23 -13 33 q-14 10 -32 12 q-19 3 -39 2 q-21 -1 -33 1 q-2 -38 -27 -69 q30 5 46 5 q16 0 24 -5 q8 -4 10 -15 q2 -10 2 -25 l0 -125 q-23 1 -44 0 q-22 0 -40 0 l-39 0 l0 -60 l123 0 l0 -62 l-54 0 l-52 0 l-45 0 l-35 0 l0 -61 l248 0 l20 -95 l66 32 l-66 63 q20 1 39 1 l64 0 l0 61 l-39 0 q-18 0 -39 -1 q-22 0 -45 0 l0 62 l79 0 l43 0 l0 60 l-122 0 l0 0 ZM535 449 l-51 36 l-62 -94 l44 -30 q6 8 18 22 q12 15 23 29 q13 18 28 37 l0 0 ZM851 155 l0 0 l0 69 q-17 -4 -28 -4 q-12 1 -34 0 l0 370 l-61 0 l0 -370 l-63 0 l0 58 l0 46 l0 41 l0 39 q0 21 -4 46 q-5 25 -14 50 q-9 26 -20 49 q-11 23 -23 41 q-6 -5 -11 -15 q-6 -9 -13 -19 q-8 -9 -17 -17 q-9 -8 -21 -11 q18 -4 31 -19 q12 -15 19 -34 q6 -19 9 -39 q3 -19 3 -32 q0 -113 1 -189 q0 -76 1 -124 q0 -48 0 -75 q-1 -27 -2 -42 q-2 0 21 0 q23 0 56 -3 q32 -3 67 -11 q34 -7 55 -23 q-2 -5 -1 -5 q0 1 3 5 q2 4 7 11 q4 7 9 15 q11 17 29 44 q-18 8 -45 14 q-22 5 -57 9 q-35 5 -83 5 l0 124 q38 -2 73 -3 q30 -1 62 -2 q31 0 51 1 l0 0 Z"></path></symbol><symbol id="chakan" viewBox="0 -212 1024 1024"><path d="M338 234 l0 0 l0 0 q139 -12 213 -96 q74 -84 75 -96 q-1 -12 -76 -96 q-74 -84 -212 -96 l0 0 q-138 12 -213 96 q-74 84 -75 96 q1 12 75 96 q74 84 213 96 l0 0 ZM338 -86 l0 0 l0 0 q99 8 153 64 q55 56 55 64 q0 8 -54 64 q-54 56 -154 64 q-101 -8 -154 -64 q-54 -56 -54 -64 q0 -8 54 -64 q54 -56 154 -64 l0 0 ZM338 106 l0 0 l0 0 q27 -1 45 -19 q18 -18 19 -45 l0 0 q-1 -27 -19 -45 q-18 -18 -45 -19 q-27 1 -45 19 q-18 18 -19 45 q1 27 19 45 q18 18 45 19 l0 0 Z"></path></symbol><symbol id="dingdan" viewBox="0 -212 1024 1024"><path d="M540 12 l0 0 l0 -109 l-55 0 q0 -22 -15 -38 q-16 -15 -39 -15 l-55 0 q-22 0 -38 15 q-16 16 -16 38 l-54 0 l0 109 l272 0 l0 0 ZM404 -37 l0 0 q-15 0 -24 -10 q-10 -10 -10 -24 q0 -14 10 -24 q9 -9 24 -9 q14 0 24 9 q10 10 10 24 q0 14 -10 24 q-10 10 -24 10 l0 0 ZM622 391 l0 0 q-40 0 -74 15 q-35 15 -61 41 q-26 27 -41 61 q-16 35 -16 74 q0 40 16 75 q15 35 41 61 q26 26 61 41 q34 15 74 15 q39 0 74 -15 q35 -15 61 -41 q26 -26 42 -61 q15 -35 15 -75 q0 -39 -15 -74 q-16 -34 -42 -61 q-26 -26 -61 -41 q-35 -15 -74 -15 l0 0 ZM741 566 l0 0 q-13 12 -29 28 q-17 16 -34 32 q-17 17 -32 33 q-16 16 -28 28 q-6 7 -18 7 q-12 0 -19 -7 q-7 -6 -16 -16 q-10 -10 -20 -20 q-10 -10 -18 -20 q-9 -9 -14 -15 q-17 -18 -4 -32 q1 -1 5 -4 q3 -3 7 -7 q3 -4 7 -7 q3 -3 4 -4 q7 -6 14 -5 q6 2 11 6 q3 3 9 9 q5 7 11 14 q6 7 12 13 q6 6 8 8 q4 7 12 5 q7 -1 13 -7 q18 -18 38 -37 q19 -19 39 -39 q8 -8 16 -12 q7 -4 16 2 q2 1 9 8 q6 7 8 8 q6 7 2 16 q-4 9 -9 15 l0 0 ZM374 556 l0 0 l-160 0 q-23 0 -39 -16 q-16 -16 -16 -39 q0 -22 16 -38 q16 -15 39 -15 l199 0 q28 -44 71 -72 q42 -28 94 -37 l-364 0 q-23 0 -39 -16 q-16 -16 -16 -39 q0 -22 16 -38 q16 -16 39 -16 l380 0 q22 0 38 16 q16 16 16 38 q0 18 -10 31 q-10 14 -25 20 l6 0 q39 0 74 11 q35 12 65 32 l0 -308 q0 -23 -10 -44 q-10 -21 -25 -36 q-16 -14 -35 -23 q-20 -9 -40 -9 l-54 0 l0 109 l-380 0 l0 -109 l-62 0 q-20 0 -38 11 q-18 11 -32 27 q-14 17 -23 36 q-9 20 -9 38 l0 538 q0 22 12 42 q11 20 28 35 q17 16 37 25 q19 10 36 10 l253 0 q-21 -29 -32 -64 q-11 -35 -11 -75 q0 -7 1 -13 q0 -6 0 -12 l0 0 Z"></path></symbol><symbol id="youzhi" viewBox="0 -212 1024 1024"><path d="M846 711 l0 0 l0 0 l0 0 q56 -1 91 -38 q35 -38 37 -94 l0 -597 l0 0 q-2 -56 -37 -93 q-35 -37 -91 -39 l-664 0 l0 0 q-57 2 -94 39 q-37 37 -38 93 l0 597 l0 0 q1 56 38 94 q37 37 94 38 l664 0 l0 0 ZM296 -27 l0 0 l71 2 l0 0 q-15 43 -33 92 q-18 50 -38 91 l0 431 l-61 0 l0 -308 l0 0 q-14 22 -37 41 q-23 20 -25 21 q0 -2 2 -23 q2 -21 -2 -39 q48 -70 75 -149 q26 -78 48 -159 l0 0 ZM645 -16 l0 0 l0 0 l0 0 q3 2 33 20 q30 18 50 35 l0 0 q-5 10 -10 33 q-5 22 -15 36 q-19 -20 -45 -42 q-26 -21 -54 -45 l41 -37 l0 0 ZM789 439 l0 0 l0 0 q-1 32 -1 52 q1 20 1 36 l0 0 q2 29 -9 46 q-12 16 -52 16 l-109 0 l0 0 q-42 -2 -59 -40 q-18 -38 -17 -83 l0 -247 l0 0 q0 7 -16 89 q-16 81 -49 155 l0 0 q-39 71 -78 99 q-39 28 -42 27 q0 -3 0 -29 q-1 -26 -4 -33 q84 -91 107 -195 q23 -104 20 -113 l-123 0 l0 -61 l123 0 l0 0 q1 -30 0 -96 q0 -65 0 -89 l62 0 l0 0 q0 54 1 102 q1 48 -1 83 l246 0 l0 61 l-185 0 l0 247 l0 0 q-2 21 11 41 q12 19 44 20 l69 0 l0 0 q-1 -3 -1 -42 q-1 -38 1 -75 q13 1 30 13 q17 11 31 16 l0 0 Z"></path></symbol><symbol id="jingjiaziyuanwei" viewBox="0 -212 1024 1024"><path d="M165 486.55 l0 0 l0 -346 q0 -24 17 -41 q16 -16 40 -16 l576 0 q24 0 42 16 q17 17 17 41 l0 56 l115 -1 l0 -228 q0 -23 -9 -44 q-9 -21 -25 -37 q-16 -15 -36 -25 q-21 -9 -45 -9 l-692 0 q-24 0 -44 9 q-21 10 -37 25 q-16 16 -25 37 q-9 21 -9 44 l0 576 q0 24 9 45 q9 22 25 37 q16 16 37 25 q20 9 44 9 l229 0 l0 -116 l-172 0 q-24 0 -40 -17 q-17 -16 -17 -40 l0 0 ZM954 526.55 l0 0 q-16 -7 -42 -20 q-26 -12 -57 -28 q-31 -16 -65 -34 q-35 -17 -68 -34 q7 -11 13 -21 q6 -10 12 -20 q-2 -4 -2 -7 q0 -11 7 -19 q6 -7 15 -9 q19 -43 -12 -67 q-14 -12 -30 -26 q-16 -13 -32 -26 q-42 -34 -78 -1 q5 7 5 17 q0 12 -8 20 q-8 8 -19 8 q-8 0 -13 -3 q-18 27 -37 54 q-20 28 -38 54 q5 4 9 10 q3 6 3 13 q0 12 -8 20 q-9 8 -21 8 q-8 0 -15 -4 q-2 3 -4 5 q-7 10 -7 20 q0 10 4 19 q4 9 11 16 q6 8 11 12 q21 12 40 26 q18 14 39 28 q8 6 19 7 q11 2 22 0 q11 -1 21 -5 q10 -4 16 -8 q-3 -8 -3 -14 q0 -11 8 -20 q8 -8 20 -8 l2 0 q1 -1 1 -2 q0 0 1 -1 q1 1 2 2 q0 1 2 2 q12 3 17 15 q29 24 60 47 q30 24 58 44 q28 21 53 38 q24 17 42 25 q10 4 21 -3 q10 -6 19 -19 q8 -13 15 -30 q6 -17 9 -34 q2 -17 -2 -30 q-4 -12 -16 -17 l0 0 Z"></path></symbol><symbol id="shuaxin" viewBox="0 -212 1024 1024"><path d="M684 199 l0 0 q6 4 29 10 q23 7 54 14 q30 8 63 15 q33 8 61 14 q18 4 35 3 q16 -1 24 -9 q16 -16 17 -51 q1 -27 1 -59 q0 -31 -1 -60 q-1 -29 -2 -51 q-1 -22 -2 -31 q-2 -17 -7 -25 q-5 -8 -11 -11 q-6 -2 -13 0 q-7 3 -13 8 q-5 3 -20 16 q-16 13 -40 30 q-63 -75 -153 -119 q-91 -43 -196 -43 q-95 0 -179 36 q-84 37 -146 99 q-62 62 -98 146 q-37 84 -37 179 q0 95 37 178 q36 84 98 146 q62 63 146 99 q84 36 179 36 q78 0 149 -25 q70 -24 128 -68 q58 -43 100 -104 q42 -60 63 -132 q5 -13 5 -28 q0 -30 -22 -53 q-22 -22 -53 -22 q-27 0 -46 15 q-20 15 -27 39 q-13 49 -41 90 q-29 42 -68 72 q-40 31 -87 48 q-48 17 -101 17 q-65 0 -121 -24 q-56 -24 -98 -66 q-42 -42 -66 -98 q-24 -56 -24 -120 q0 -64 24 -121 q24 -56 66 -98 q42 -42 98 -66 q56 -24 121 -24 q70 0 129 28 q59 28 102 77 q-24 20 -41 33 q-17 14 -20 16 q-10 9 -11 22 q-2 14 15 22 l0 0 Z"></path></symbol><symbol id="chongzhi" viewBox="0 -212 1024 1024"><path d="M467 -150 l0 0 l0 0 q177 5 295 123 q117 117 122 294 l0 0 q-5 177 -122 295 q-118 118 -295 122 q-64 0 -122 -18 q-58 -18 -108 -51 l29 -35 l0 0 q43 29 94 44 q51 15 107 16 q158 -4 263 -109 q105 -106 109 -264 q-4 -158 -109 -263 q-105 -105 -263 -109 q-158 4 -263 109 q-105 105 -109 263 l0 0 q0 63 19 119 q19 56 54 103 l-32 33 l0 0 q-41 -54 -63 -118 q-23 -65 -23 -137 l0 0 q4 -177 122 -294 q118 -118 295 -123 l0 0 ZM288 312 l164 0 l0 -89 l-164 0 l0 -45 l132 0 l-96 -96 l32 -32 l118 118 l119 -118 l32 32 l-96 96 l131 0 l0 45 l-163 0 l0 89 l163 0 l0 45 l-163 0 l0 119 l0 0 l0 0 l0 30 l-45 0 l0 -30 l0 0 l0 0 l0 -119 l-164 0 l0 -45 l0 0 Z"></path></symbol><symbol id="chongzhi" viewBox="0 -212 1024 1024"><path d="M474 -150 l0 0 q-88 0 -165 33 q-77 34 -134 91 q-58 58 -91 135 q-34 78 -34 166 q0 88 34 165 q33 77 91 134 q57 58 134 91 q77 34 165 34 q88 0 166 -34 q77 -33 134 -91 q57 -57 91 -134 q33 -77 33 -165 q0 -88 -33 -166 q-34 -77 -91 -135 q-57 -57 -134 -91 q-78 -33 -166 -33 l0 0 ZM723 468 l0 0 q-12 54 -85 51 l-67 0 q-75 3 -73 -69 l0 -156 l-75 3 q12 175 -187 236 q-3 -6 -8 -14 q-6 -8 -14 -20 q-5 -7 -8 -12 q-3 -4 -5 -8 q97 -31 127 -67 q33 -34 33 -110 l-24 0 q-27 2 -43 4 q-16 2 -24 4 l-29 -57 q30 -13 53 -35 q50 -40 98 -94 l-184 0 l0 -56 l237 0 q-1 -4 -6 -19 q-5 -15 -8 -25 q-3 -10 -5 -15 l67 -7 q1 6 5 16 q4 10 9 27 l4 14 q1 6 2 9 l216 0 l0 56 l-257 0 q-76 76 -131 122 l242 -6 q-10 -12 -32 -32 q-10 -10 -18 -17 q-8 -6 -13 -11 l40 -31 q39 33 79 67 q39 35 79 71 l-46 41 l-36 -36 l-78 2 l0 139 q-3 38 38 35 l31 0 q40 0 45 -31 q3 -20 5 -35 q2 -15 3 -28 q14 6 28 12 q14 6 28 11 q-2 20 -5 38 q-3 18 -8 33 l0 0 Z"></path></symbol><symbol id="xiaofeizhebaozhang" viewBox="0 -212 1024 1024"><path d="M884 -73 l-25 -5 l-391 -72 l-384 72 l-34 5 l0 463 q0 42 22 83 q21 42 56 80 q35 39 80 73 q45 35 91 62 q46 28 89 45 q43 18 75 25 l10 2 l10 -2 q31 -7 74 -25 q42 -17 87 -45 q44 -27 87 -62 q43 -34 77 -73 q34 -38 55 -80 q21 -41 21 -83 l0 -463 l0 0 ZM468 -48 l0 0 l0 316 l-304 0 l0 -266 l299 -51 l5 1 l0 0 ZM769 268 l0 0 l0 122 q0 30 -14 58 q-14 28 -37 54 q-24 27 -55 50 q-31 23 -64 41 q-34 19 -68 33 q-34 14 -63 20 l0 -378 l301 0 l0 0 Z"></path></symbol><symbol id="diamond" viewBox="0 -212 1024 1024"><path d="M1147 150.5 l-173 -231 q-7 -9 -18 -11 l-347 -58 q-4 -1 -9 0 l-346 58 q-11 2 -18 11 l-173 231 q-13 19 2 36 l519 578 q8 8 21 9 q13 -1 22 -9 l519 -578 q13 -17 1 -36 l0 0 ZM794 138.5 l-189 521 l-190 -521 l379 0 l0 0 ZM444 81.5 l161 -162 l161 162 l-322 0 l0 0 ZM689 -77.5 l213 35 l-71 108 l-142 -143 l0 0 ZM379 65.5 l-71 -108 l212 -35 l-141 143 l0 0 ZM326 89.5 l-172 35 l103 -138 l69 103 l0 0 ZM356 142.5 l171 472 l-386 -429 l215 -43 l0 0 ZM855 143.5 l214 42 l-387 429 l173 -471 l0 0 ZM883 89.5 l69 -103 l104 138 l-173 -35 l0 0 Z"></path></symbol><symbol id="license" viewBox="0 -212 1024 1024"><path d="M1118 774 l-981 0 q-80 -7 -87 -86 l0 -751 q7 -79 87 -87 l981 0 q80 8 87 87 l0 751 q-7 79 -87 86 l0 0 ZM137 -92 q-27 3 -29 29 l0 751 q2 26 29 29 l981 0 q27 -3 29 -29 l0 -751 q-2 -26 -29 -29 l-981 0 l0 0 ZM599 81 l-347 0 q-26 -2 -29 -28 q3 -27 29 -29 l347 0 q26 2 29 29 q-3 26 -29 28 l0 0 ZM599 255 l-347 0 q-26 -3 -29 -29 q3 -26 29 -29 l347 0 q26 3 29 29 q-3 26 -29 29 l0 0 ZM599 370 l-347 0 q-26 -2 -29 -29 q3 -26 29 -29 l347 0 q26 3 29 29 q-3 27 -29 29 l0 0 ZM599 486 l-347 0 q-26 -3 -29 -29 q3 -26 29 -29 l347 0 q26 3 29 29 q-3 26 -29 29 l0 0 ZM541 601 l-289 0 q-26 -2 -29 -29 q3 -26 29 -29 l289 0 q26 3 29 29 q-3 27 -29 29 l0 0 ZM1086 113 l-47 -34 l-18 -55 l-58 0 l-47 -35 l-47 35 l-57 0 l-18 55 l-47 34 l18 55 l-18 55 l47 34 l7 24 l0 291 q1 19 18 27 q17 7 31 -6 l66 -67 l66 67 q9 8 21 8 q5 0 11 -2 q17 -8 18 -27 l0 -288 l0 -3 l7 -24 l47 -34 l-17 -55 l17 -55 l0 0 ZM814 135 l28 -20 l11 -34 l35 0 l28 -20 l28 20 l35 0 l11 34 l28 20 l-11 33 l11 34 l-28 19 l-11 34 l-35 0 l-28 21 l-28 -21 l-35 0 l-11 -34 l-28 -19 l11 -34 l-11 -33 l0 0 ZM937 465 q-21 -16 -42 0 l-36 38 l0 -191 l10 0 l47 35 l47 -35 l11 0 l0 191 l-37 -38 l0 0 Z"></path></symbol><symbol id="renzhengyonghu" viewBox="0 -212 1024 1024"><path d="M529 212 l0 0 q2 -6 4 -11 l4 -11 q1 -6 3 -10 q7 -3 14 -9 q7 -5 12 -15 q5 -10 6 -27 q2 -12 0 -21 q-2 -8 -5 -14 q-3 -6 -9 -10 q0 -31 -4 -62 q-3 -28 -12 -58 q-10 -29 -30 -54 q-9 -11 -24 -22 q-15 -11 -34 -20 q-20 -8 -42 -13 q-22 -5 -45 -5 q-17 0 -36 3 q-19 3 -38 10 q-20 8 -38 21 q-18 14 -33 36 q-17 22 -24 51 q-8 29 -11 54 q-3 29 -3 59 q-7 7 -10 16 q-4 8 -5 19 q-1 11 3 24 q4 13 10 20 q5 7 9 11 q6 4 11 6 q4 12 8 24 q4 10 9 19 q5 10 11 16 q13 11 24 21 q11 11 13 28 q0 13 0 23 q0 10 -3 19 q-4 10 -13 19 q-9 10 -25 20 q-14 9 -31 14 q-17 6 -34 11 q-18 5 -35 10 q-18 6 -31 15 q-14 9 -24 21 q-10 13 -13 32 q-8 51 -3 83 q4 32 12 38 q5 4 23 8 q18 4 44 8 q25 4 57 7 q31 4 63 6 q31 3 61 4 q30 2 52 2 l21 0 q-18 -33 -28 -70 q-11 -36 -11 -77 q0 -45 13 -87 q13 -41 37 -76 q24 -35 57 -62 q33 -27 73 -44 l0 0 ZM640 237 l0 0 q-51 0 -96 19 q-45 20 -78 53 q-33 34 -52 78 q-19 45 -19 95 q0 51 19 95 q19 45 52 78 q33 34 78 53 q45 19 96 19 q50 0 95 -19 q44 -19 77 -53 q33 -33 53 -78 q19 -44 19 -95 q0 -50 -19 -95 q-20 -44 -53 -78 q-33 -33 -77 -53 q-45 -19 -95 -19 l0 0 ZM782 434 l0 0 q-4 14 -11 33 q-7 20 -15 41 q-8 21 -17 43 q-9 22 -18 42 q-11 25 -34 37 q-24 13 -50 12 q-26 -1 -49 -16 q-24 -14 -36 -44 q-5 -14 -12 -33 q-7 -19 -15 -40 q-8 -20 -15 -40 q-7 -19 -12 -34 q-6 -15 3 -28 q8 -12 22 -18 q14 -5 28 -4 q14 2 20 14 q4 9 10 23 q5 14 12 31 q7 17 15 35 q7 18 15 33 q8 16 23 17 q14 1 22 -19 q7 -19 12 -34 q5 -14 9 -26 q3 -12 7 -24 q3 -11 7 -24 q7 -20 22 -25 q15 -4 30 1 q14 6 23 19 q9 13 4 28 l0 0 Z"></path></symbol><symbol id="vip1" viewBox="0 -212 1024 1024"><path d="M512 980 q-94 0 -180 -37 q-82 -35 -146 -98 q-64 -64 -99 -147 q-36 -86 -36 -179 q0 -94 36 -180 q35 -82 99 -146 q64 -64 146 -99 q86 -36 180 -36 q93 0 179 36 q83 35 147 99 q63 64 98 146 q37 86 37 180 q0 93 -37 179 q-35 83 -98 147 q-64 63 -147 98 q-86 37 -179 37 l0 0 ZM512 92 q-181 5 -301 125 q-121 121 -125 302 q4 180 125 300 q120 121 301 126 q181 -5 301 -125 q120 -121 125 -301 q-5 -181 -125 -302 q-120 -120 -301 -125 l0 0 ZM236 692 l-8 -27 l-53 -152 l-41 -117 l52 0 l44 0 q5 19 8 29 q4 13 15 47 l32 103 q4 16 11 42 l10 -25 l76 -166 q2 -4 4 -10 q3 -6 8 -20 l51 0 l47 0 q-22 41 -50 96 l-75 148 q-11 22 -24 52 q-36 -1 -52 -1 q-14 0 -55 1 l0 0 ZM493 692 q12 -174 12 -268 l0 -28 l51 0 l46 0 q-4 49 -6 92 q-3 61 -4 114 q-2 52 -2 90 l-44 -1 q-13 0 -53 1 l0 0 ZM644 692 l5 -56 l5 -108 l2 -77 q1 -12 1 -25 q0 -9 -1 -30 q29 1 46 1 q17 0 46 -1 q29 -1 49 -1 q29 0 43 3 q14 4 26 12 q11 8 18 18 q8 11 11 25 q4 13 4 27 q0 29 -14 53 q-14 24 -40 36 q-25 12 -57 12 q-12 0 -27 -3 q-2 -9 -7 -29 q-5 -20 -8 -29 q10 2 20 2 q22 0 33 -11 q11 -10 11 -26 q0 -7 -3 -13 q-2 -5 -7 -9 q-6 -4 -12 -5 q-6 -1 -14 -1 l-16 0 l-19 2 q-2 42 -4 93 q-3 93 -3 111 l0 29 l-43 -1 q-9 0 -45 1 l0 0 Z"></path></symbol><symbol id="vip2" viewBox="0 -212 1024 1024"><path d="M26 116 l431 0 l0 37 q-39 5 -54 17 q-15 11 -15 36 q0 36 50 152 q51 115 141 289 q95 -210 130 -303 q35 -93 35 -128 q0 -29 -18 -44 q-18 -14 -60 -19 l0 -37 l333 0 l0 37 q-49 4 -82 31 q-32 27 -75 108 q-56 112 -126 264 q-70 152 -143 324 q-20 31 -58 32 q-37 0 -55 -32 q-40 -80 -108 -221 q-243 -506 -320 -506 l-6 0 l0 -37 l0 0 Z"></path></symbol><symbol id="localization4" viewBox="0 -212 1024 1024"><path d="M362 -148.44 l0 0 q-20 -10 -156 44 q-136 54 -156 297 q20 149 156 351 q136 202 156 222 q20 -20 158 -222 q138 -201 158 -353 q-20 -241 -158 -295 q-138 -54 -158 -44 l0 0 ZM363 593.56 l0 0 q-13 -13 -100 -152 q-86 -139 -99 -241 q12 -167 99 -204 q87 -37 100 -31 q13 -6 101 31 q88 37 99 203 q-13 104 -100 243 q-88 138 -100 151 l0 0 ZM364 80.56 l0 0 q-79 7 -86 85 q7 79 86 86 q78 -7 86 -86 q-8 -78 -86 -85 l0 0 Z"></path></symbol><symbol id="basket-buy-coins-money-purchase-shopping" viewBox="0 -212 1024 1024"><path d="M68 234 q-18 1 -18 18 q0 17 18 18 l74 0 l103 466 q3 13 18 14 l646 0 q14 -1 17 -15 l90 -465 l85 0 q17 -1 19 -18 q-2 -17 -19 -18 l-1033 0 ZM278 713 l-98 -443 l799 0 l-85 443 l-616 0 ZM216 164 q17 -1 19 -18 q3 -110 75 -183 q73 -73 183 -75 q110 2 183 75 q73 74 76 183 q1 17 18 18 q17 -1 19 -18 q-4 -125 -87.5 -208.5 q-83.5 -83.5 -208.5 -87.5 q-125 4 -208.5 87.5 q-83.5 83.5 -86.5 208.5 q2 17 18 18 ZM724 -112 q109 2 182.5 75.5 q73.5 73.5 75.5 182.5 q2 17 19 18 q17 -1 19 -18 q-4 -125 -87 -209 q-84 -83 -209 -87 q-17 2 -19 19 q2 17 19 19 ZM472 -62 q-17 2 -19 19 l0 29 q-49 12 -52 61 q4 50 54 65 l17 8 q41 18 35 32 q1 17 18 19 q17 -2 18 -19 q-4 -50 -54 -65 l-17 -8 q-41 -18 -35 -32 q12 -31 35 -26 q25 -5 34 26 q2 17 18 18 q17 -1 18 -18 q-2 -49 -51 -61 l0 -29 q-2 -17 -19 -19 Z"></path></symbol><symbol id="shopping199" viewBox="0 -212 1024 1024"><path d="M1152 63 l0 0 l-232 0 l72 -142 l88 0 q33 -3 37 -36 q-4 -32 -37 -35 l-141 0 l-110 213 l-418 0 l-112 -213 l-143 0 q-32 3 -35 35 q3 33 35 36 l90 0 l76 142 l-237 0 q-32 4 -35 36 q3 33 35 35 l36 0 l35 497 q13 130 143 143 l604 0 q130 -13 142 -143 l72 -497 l35 0 q32 -2 35 -35 q-3 -32 -35 -36 l0 0 ZM406 703 l0 0 l-107 0 q-65 -7 -71 -72 l-6 -70 l184 0 l0 142 l0 0 ZM406 490 l0 0 l-188 0 l-11 -143 l199 0 l0 143 l0 0 ZM406 277 l0 0 l-204 0 l-9 -143 l213 0 l0 143 l0 0 ZM761 703 l0 0 l-284 0 l0 -142 l284 0 l0 142 l0 0 ZM761 490 l0 0 l-284 0 l0 -143 l284 0 l0 143 l0 0 ZM761 277 l0 0 l-284 0 l0 -143 l284 0 l0 143 l0 0 ZM974 631 l0 0 q-6 65 -71 72 l-72 0 l0 -142 l153 0 l-10 70 l0 0 ZM994 490 l0 0 l-163 0 l0 -143 l184 0 l-21 143 l0 0 ZM1025 277 l0 0 l-194 0 l0 -143 l214 0 l-20 143 l0 0 Z"></path></symbol><symbol id="shopping_basket" viewBox="0 -212 1024 1024"><path d="M572 561 q40 -1 67 -28 q27 -27 28 -67 q-1 -40 -28 -68 q-27 -27 -67 -28 q-40 1 -67 28 q-28 28 -29 68 q1 40 29 67 q27 27 67 28 l0 0 ZM572 -28 l-142 209 l284 0 l-142 -209 l0 0 ZM612 -130 l207 311 l226 0 q21 0 35 13 q14 14 14 34 q-29 114 -60 227 q-32 113 -62 226 q-9 30 -33 49 q-25 19 -58 20 l-618 0 q-33 -1 -57 -20 q-25 -19 -34 -49 l-120 -440 q-2 -6 -2 -13 q1 -20 15 -34 q14 -13 34 -13 l226 0 l207 -311 q7 -10 18 -15 q10 -5 22 -5 q12 0 23 5 q10 5 17 15 l0 0 Z"></path></symbol><symbol id="foot1" viewBox="0 -212 1024 1024"><path d="M512 -150 q-196 5 -327 136 q-130 130 -135 326 q5 196 135 327 q131 130 327 135 q196 -5 327 -136 q130 -130 135 -326 q-5 -196 -135 -327 q-131 -130 -327 -135 l0 0 ZM628 122 l24 5 l-5 62 l-39 -8 l20 -59 l0 0 ZM565 90 l31 6 l-7 77 l-49 -10 l25 -73 l0 0 ZM491 52 l39 8 l-9 97 l-62 -13 l32 -92 l0 0 ZM325 89 l96 -55 l15 111 l-63 34 l-48 -90 l0 0 ZM521 590 l-68 -6 l-40 -123 l27 -22 l119 11 l22 27 l-60 113 l0 0 ZM606 422 l-207 -18 l-13 -199 l64 -32 l200 44 l21 15 l-65 190 l0 0 ZM682 206 l-24 -15 l26 -33 l14 8 l-16 40 l0 0 Z"></path></symbol><symbol id="coffee-cup" viewBox="0 -212 1024 1024"><path d="M330 53 q37 -4 41 -42 l0 -82 q-4 -37 -41 -41 q-37 4 -42 41 l0 82 q5 38 42 42 l0 0 ZM453 53 q37 -4 41 -42 l0 -41 q-4 -37 -41 -41 q-37 4 -41 41 l0 41 q4 38 41 42 l0 0 ZM206 53 q37 -4 41 -42 l0 -41 q-4 -37 -41 -41 q-37 4 -41 41 l0 41 q4 38 41 42 l0 0 ZM700 217 l-82 0 q-7 -75 -82 -82 l-412 0 q-76 7 -83 82 l0 206 q-3 123 63 204 q65 81 226 85 q226 -10 269 -165 l101 0 q152 -14 165 -165 q-13 -151 -165 -165 l0 0 ZM700 465 l-84 0 q2 -21 2 -42 l0 -123 l82 0 q76 7 83 82 q-7 76 -83 83 l0 0 Z"></path></symbol><symbol id="basket" viewBox="0 -212 1024 1024"><path d="M865 259 q-4 -37 -41 -42 l-63 0 l-277 -316 l-1 1 q-10 -13 -30 -14 q-19 1 -30 14 l-277 315 l-64 0 q-37 5 -41 42 q1 4 2 7 l-1 1 l83 412 l1 -1 q7 31 39 34 l577 0 q31 -3 39 -34 l1 1 l82 -412 l-1 -1 q2 -3 2 -7 l0 0 ZM453 -9 l198 226 l-395 0 l197 -226 l0 0 ZM206 341 l82 0 l13 82 l-82 0 l-13 -82 l0 0 ZM247 588 l-13 -82 l83 0 l13 82 l-83 0 l0 0 ZM494 588 l-82 0 l0 -82 l82 0 l0 82 l0 0 ZM494 423 l-82 0 l0 -82 l82 0 l0 82 l0 0 ZM659 588 l-82 0 l13 -82 l82 0 l-13 82 l0 0 ZM687 423 l-82 0 l13 -82 l82 0 l-13 82 l0 0 Z"></path></symbol></defs></svg>